<svg xmlns="http://www.w3.org/2000/svg" viewBox="0 -0.5 32 32" shape-rendering="crispEdges">
<path stroke="#000000" d="M14 0h3M13 1h1M17 1h1M10 2h3M18 2h2M8 3h2M20 3h2M7 4h1M22 4h1M6 5h1M23 5h1M5 6h1M24 6h1M4 7h1M24 7h1M4 8h1M25 8h1M3 9h1M25 9h1M3 10h1M25 10h1M3 11h1M26 11h1M3 12h1M26 12h1M3 13h1M9 13h2M26 13h1M5 14h1M10 14h1M15 14h4M26 14h1M4 15h1M6 15h1M16 15h2M19 15h1M27 15h1M3 16h1M6 16h1M28 16h1M3 17h1M6 17h1M28 17h1M2 18h3M6 18h1M2 19h1M5 19h1M7 19h1M26 19h1M2 20h1M23 20h1M28 20h1M3 21h1M9 21h1M19 21h1M23 21h1M29 21h1M2 22h1M8 22h1M10 22h1M16 22h1M19 22h1M22 22h1M24 22h1M29 22h1M3 23h1M7 23h1M9 23h1M17 23h1M20 23h2M25 23h1M28 23h1M2 24h1M6 24h1M8 24h1M18 24h1M21 24h1M26 24h2M3 25h3M7 25h1M19 25h1M22 25h1M8 26h1M20 26h2M9 27h1M19 27h1M10 28h1M12 28h4M18 28h1M10 29h1M12 29h1M16 29h1M19 29h1M10 30h2M17 30h1M19 30h1M18 31h1" />
<path stroke="#c60021" d="M14 1h1M13 2h1M16 2h1M12 3h1M15 3h1M17 3h1M11 4h1M17 4h2M11 5h1M17 5h2M12 6h5M22 10h1M25 14h1M10 15h1M16 16h1M10 17h1M17 17h1M16 18h2M27 19h1M16 26h1M11 29h1M18 30h1" />
<path stroke="#840021" d="M15 1h2M15 2h1M17 2h1M16 3h1M18 3h1M16 4h1M19 4h1M16 5h1M19 5h1M17 6h2M14 7h4M21 9h1M25 13h1M5 15h1M27 18h1" />
<path stroke="#f72163" d="M14 2h1M13 3h2M12 4h4M12 5h4M10 16h1M16 17h1" />
<path stroke="#303030" d="M10 3h2M19 3h1M8 4h1M20 4h2M7 5h1M20 5h3M6 6h1M19 6h1M22 6h2M5 7h1M13 7h1M18 7h1M23 7h1M23 8h2M4 9h1M20 9h1M23 9h2M10 10h1M21 10h1M5 11h1M7 11h1M11 11h1M15 11h1M21 11h1M4 12h2M7 12h1M11 12h2M15 12h2M4 13h1M6 13h2M13 13h2M17 13h1M7 14h1M14 14h1M19 14h1M22 14h1M24 14h1M7 15h1M22 15h3M20 16h1M23 16h1M7 17h1M23 17h1M7 18h1M23 18h1M21 19h3M19 20h2M22 20h1M22 21h1" />
<path stroke="#63635a" d="M9 4h2M8 5h3M7 6h5M20 6h2M6 7h7M19 7h4M5 8h1M7 8h16M5 9h2M10 9h10M22 9h1M4 10h6M11 10h1M15 10h1M19 10h2M4 11h1M6 11h1M8 11h2M12 11h3M16 11h5M6 12h1M9 12h1M13 12h2M17 12h5M15 13h1M18 13h5M20 14h2M23 14h1M20 15h2M21 16h1M20 17h2M20 18h2M20 19h1" />
<path stroke="#b5b5ad" d="M6 8h1M7 9h3M12 10h3M16 10h3M9 14h1M9 15h1M18 15h1M10 21h1M8 25h1M19 26h1M18 27h1" />
<path stroke="#f7f7e7" d="M23 10h1M22 11h3M23 12h1M25 15h1M4 16h1M24 16h3M25 17h1M26 20h1M25 21h3M26 22h1" />
<path stroke="#b5b584" d="M24 10h1M25 11h1M22 12h1M24 12h2M23 13h2M26 15h1M5 16h1M4 17h2M24 17h1M26 17h1M27 20h1M25 22h1M27 22h1" />
<path stroke="#181818" d="M10 11h1M8 12h1M10 12h1M5 13h1M8 13h1M12 13h1M16 13h1M4 14h1M6 14h1M8 14h1M13 14h1M8 15h1M7 16h2M19 16h1M22 16h1M8 17h1M19 17h1M22 17h1M8 18h1M19 18h1M22 18h1M24 18h1M9 19h1M19 19h1M24 19h2M9 20h2M18 20h1M21 20h1M24 20h2M18 21h1M20 21h2M24 21h1M20 22h2" />
<path stroke="#e79484" d="M11 13h1M12 14h1M13 15h3M7 24h1M20 25h1" />
<path stroke="#f7e794" d="M11 14h1M11 15h2M11 16h5M9 17h1M11 17h5M10 18h6M18 18h1M11 19h7M19 23h1M20 24h1M21 25h1M16 28h1" />
<path stroke="#ffffff" d="M9 16h1M17 16h2M18 17h1M13 21h2M11 22h4M18 22h1M12 23h1M11 24h1M13 24h2M11 27h6M17 29h1" />
<path stroke="#848452" d="M27 16h1M27 17h1M5 18h1M25 18h2M28 21h1M28 22h1M26 23h2" />
<path stroke="#f7b594" d="M9 18h1M10 19h1M18 19h1M11 20h7M8 23h1M18 23h1M19 24h1M17 28h1" />
<path stroke="#d60052" d="M3 19h2M6 19h1M8 19h1M3 20h1M6 20h1M8 20h1M3 22h2M3 24h2" />
<path stroke="#e78442" d="M4 20h2M7 20h1M4 21h1M6 21h1M8 21h1M15 21h1M5 22h1M4 23h1M5 24h1M15 24h1M10 25h1" />
<path stroke="#ffe75a" d="M5 21h1M7 21h1M6 22h2M15 22h1M5 23h2M11 25h1M10 26h2" />
<path stroke="#c6c6ce" d="M11 21h1M16 21h2M9 22h1M17 22h1M10 23h1M14 23h1M16 23h1M10 24h1M16 24h1M9 26h1M10 27h1M17 27h1M11 28h1M18 29h1" />
<path stroke="#505050" d="M12 21h1M11 23h1M13 23h1M12 25h3M12 26h4" />
<path stroke="#202020" d="M15 23h1M9 24h1M12 24h1M17 24h1M9 25h1M15 25h4M17 26h2" />
</svg>