<svg xmlns="http://www.w3.org/2000/svg" width="110.4" height="109.8" xmlns:v="https://vecta.io/nano"><defs><linearGradient y2="168.1" x2="147.8" y1="111.9" x1="89.1" id="A" gradientUnits="userSpaceOnUse"><stop offset="0" stop-color="#ffe052"/><stop offset="1" stop-color="#ffc331"/></linearGradient><linearGradient y2="131.9" x2="110.1" y1="77.1" x1="55.5" id="B" gradientUnits="userSpaceOnUse"><stop offset="0" stop-color="#387eb8"/><stop offset="1" stop-color="#366994"/></linearGradient></defs><g transform="translate(-44.9 -67.5)"><path d="M99.8 67.5c-28 0-26.3 12.2-26.3 12.2v12.6h26.8V96H63s-18-2-18 26.3 15.7 27.3 15.7 27.3H70v-13s-.5-15.7 15.4-15.7H112s15 .2 15-14.4V82c0 0 2.3-14.7-27-14.7zM85 76c2.7 0 4.8 2.2 4.8 4.8s-2.2 4.8-4.8 4.8-4.8-2.2-4.8-4.8S82.3 76 85 76z" fill="url(#B)"/><path d="M100.5 177.3c28 0 26.3-12.2 26.3-12.2v-12.6H100v-3.8h37.4s18 2 18-26.3-15.7-27.3-15.7-27.3h-9.3v13S131 124 115 124H88.4s-15-.2-15 14.4v24.2s-2.3 14.7 27 14.7zm14.8-8.5c-2.7 0-4.8-2.2-4.8-4.8s2.2-4.8 4.8-4.8 4.8 2.2 4.8 4.8-2.2 4.8-4.8 4.8z" fill="url(#A)"/></g></svg>