<svg xmlns="http://www.w3.org/2000/svg" xmlns:xlink="http://www.w3.org/1999/xlink" height="106" width="106" xmlns:v="https://vecta.io/nano"><g transform="translate(53 53)"><path stroke="#000" stroke-linejoin="round" d="M-8.5-14.5h13c8 0 8 8 0 8h-13zm-31 37h40v-11h-9v-8h10c11 0 5 19 14 19h25v-19h-6v2c0 8-9 7-10 2s-5-9-6-9c15-8 6-24-6-24h-47v11h10v26h-15z"/><g mask="url(#C)"><circle r="43" fill="none" stroke="#000" stroke-width="9"/><path id="A" stroke="#000" stroke-width="3" stroke-linejoin="round" d="M46 3l5-3-5-3z"/><use xlink:href="#A" transform="rotate(11.3)"/><use xlink:href="#A" transform="rotate(22.5)"/><use xlink:href="#A" transform="rotate(33.8)"/><use xlink:href="#A" transform="rotate(45)"/><use xlink:href="#A" transform="rotate(56.3)"/><use xlink:href="#A" transform="rotate(67.5)"/><use xlink:href="#A" transform="rotate(78.8)"/><use xlink:href="#A" transform="rotate(90)"/><use xlink:href="#A" transform="rotate(101.3)"/><use xlink:href="#A" transform="rotate(112.5)"/><use xlink:href="#A" transform="rotate(123.8)"/><use xlink:href="#A" transform="rotate(135)"/><use xlink:href="#A" transform="rotate(146.3)"/><use xlink:href="#A" transform="rotate(157.5)"/><use xlink:href="#A" transform="rotate(168.8)"/><use xlink:href="#A" transform="rotate(180)"/><use xlink:href="#A" transform="rotate(191.3)"/><use xlink:href="#A" transform="rotate(202.5)"/><use xlink:href="#A" transform="rotate(213.8)"/><use xlink:href="#A" transform="rotate(225)"/><use xlink:href="#A" transform="rotate(236.3)"/><use xlink:href="#A" transform="rotate(247.5)"/><use xlink:href="#A" transform="rotate(258.8)"/><use xlink:href="#A" transform="rotate(270)"/><use xlink:href="#A" transform="rotate(281.3)"/><use xlink:href="#A" transform="rotate(292.5)"/><use xlink:href="#A" transform="rotate(303.8)"/><use xlink:href="#A" transform="rotate(315)"/><use xlink:href="#A" transform="rotate(326.3)"/><use xlink:href="#A" transform="rotate(337.5)"/><use xlink:href="#A" transform="rotate(348.8)"/><path id="B" stroke="#000" stroke-width="6" stroke-linejoin="round" d="M-7-42l7 7 7-7z"/><use xlink:href="#B" transform="rotate(72)"/><use xlink:href="#B" transform="rotate(144)"/><use xlink:href="#B" transform="rotate(216)"/><use xlink:href="#B" transform="rotate(288)"/></g><mask id="C"><path fill="#fff" d="M-60-60H60V60H-60z"/><circle id="D" cy="-40" r="3"/><use xlink:href="#D" transform="rotate(72)"/><use xlink:href="#D" transform="rotate(144)"/><use xlink:href="#D" transform="rotate(216)"/><use xlink:href="#D" transform="rotate(288)"/></mask></g></svg>