<svg xmlns="http://www.w3.org/2000/svg" viewBox="0 0 98.1 118" xmlns:v="https://vecta.io/nano"><path d="M91.8 15.6A36 36 0 0 0 43.6 5.2L16 22.8C8.6 27.5 3.4 35.2 2 44c-1.3 7.3-.2 14.8 3.3 21.3-2.4 3.6-4 7.6-4.7 11.8-1.6 9 .5 18 5.7 25.4a36 36 0 0 0 48.2 10.4L82 95.3c7.5-4.7 12.7-12.4 14.2-21 1.3-7.3.2-14.8-3.3-21.3 2.4-3.6 4-7.6 4.7-11.8a33 33 0 0 0-5.7-25.5" fill="#ff3e00"/><path d="M41 104c-9 2.3-18.2-1.2-23.4-8.7-3.2-4.4-4.4-10-3.5-15.3.2-1 .4-1.7.6-2.6l.5-1.6 1.4 1c3.3 2.4 7 4.2 10.8 5.4l1 .3-.1 1c-.1 1.4.3 3 1 4 1.6 2.3 4.4 3.4 7 2.7.6-.2 1.2-.4 1.7-.7L65.5 72c1.4-1 2.3-2.2 2.6-3.8s-.1-3.3-1-4.6c-1.6-2.3-4.4-3.3-7-2.6l-1.7.7-10.5 6.7c-1.7 1-3.6 2-5.6 2.4-9 2.3-18.2-1.2-23.4-8.7-3-4.4-4.4-10-3.4-15.3A19 19 0 0 1 24 34.1l27.5-17.5c1.7-1 3.6-2 5.6-2.5 9-2.3 18.2 1.2 23.4 8.7 3.2 4.4 4.4 10 3.5 15.3l-.7 2.6-.5 1.6-1.4-1C78 39 74.5 37 70.6 36l-1-.3.1-1c.1-1.4-.3-3-1-4-1.6-2.3-4.4-3.3-7-2.6l-1.7.7L32.4 46C31 47 30 48.3 29.8 50s.1 3.3 1 4.6c1.6 2.3 4.4 3.3 7 2.6.6-.2 1.2-.4 1.7-.7L50 49.7c1.7-1 3.6-2 5.6-2.5C64.6 45 74 48.4 79 56c3.2 4.4 4.4 10 3.5 15.3A19 19 0 0 1 74 83.9l-27.5 17.5c-1.7 1-3.6 2-5.6 2.5" fill="#fff"/></svg>