<svg xmlns="http://www.w3.org/2000/svg" width="512" height="512" fill="none" xmlns:v="https://vecta.io/nano"><rect width="512" height="512" rx="50" fill="#3178c6"/><path d="M317 407v50c8 4.2 18 7.3 29 9.4a189 189 0 0 0 35 3.1c12 0 23-1 34-3.4s20-6 28-11c8-5.3 15-12 19-21s7-19 7-32a66 66 0 0 0-4.1-24 47 47 0 0 0-12-18c-5-5.3-11-10-18-14s-15-8.2-24-12c-6.6-2.7-12-5.3-18-8a78 78 0 0 1-13-7.8c-3.7-2.7-6.5-5.5-8.5-8.4-2-3-3-6.3-3-10 0-3.4 1-6.5 2.7-9.3s4.3-5 7.5-7a39 39 0 0 1 12-4.6 70 70 0 0 1 16-1.6c4.2 0 8.6.3 13 1 4.6.6 9.3 1.6 14 3l14 5a66 66 0 0 1 12 6.9v-47c-7.6-3-16-5-25-6.5s-19-2-31-2a151 151 0 0 0-34 3.8 79 79 0 0 0-28 12c-8 5.4-14 12-19 21-4.7 8.4-7 18-7 30 0 15 4.3 28 13 38 8.6 11 22 19 39 27l19 8.3c6 2.7 11 5.5 15 8.4 4.3 3 7.7 6 10 9.5 2.5 3.4 3.8 7.4 3.8 12 0 3.2-.8 6.2-2.3 9s-4 5.2-7 7.2-7 3.6-12 4.8a73 73 0 0 1-17 1.7c-11 0-22-2-32-5.7a95 95 0 0 1-30-17zm-84-123h64v-41H118v41h64v183h51z" fill="#fff" fill-rule="evenodd"/></svg>