<svg xmlns="http://www.w3.org/2000/svg" viewBox="0 -0.5 61 57" shape-rendering="crispEdges" xmlns:v="https://vecta.io/nano"><path stroke="#601000" d="M16 0h6m-8 1h1m7 0h1M13 2h1m9 0h1M12 3h1m-1 1h1m-2 1h3m-3 1h2m-2 1h1m-1 1h1M4 9h1m-2 1h1m45 0h1m-4 1h1m2 0h1m2 0h3m2 0h1m-34 1h1m20 0h1m3 0h2m5 0h1m-41 1h2m6 0h1m19 0h1m4 0h1m5 0h1m-41 1h2m31 0h1m5 0h1m-40 1h2m31 0h1m6 0h1m-13 1h1m3 0h1m4 0h1m3 0h1m2 0h1m-2 1h1m-14 1h1m11 0h1m-12 1h2m2 0h1m5 0h1m-9 1h1m2 0h4m-6 1h1m-5 1h1m3 0h1m-4 1h2m1 0h2m-3 1h2m1 0h3m-5 1h1m-2 1h1M35 41h1m-6 1h1m4 0h1m-6 1h1m3 0h1m-5 1h2m-3 1h2m2 0h1m-6 1h2m-2 1h1m12 1h2m0 1h1m-8 1h1m7 0h1m-8 1h1m6 0h1m-7 1h1m5 0h1m-5 1h4m-2 1h1m0 1h1m0 1h1"/><path stroke="#a01000" d="M15 1h1m5 0h1m-5 1h2m-6 1h1m1 0h2m-4 1h2m21 0h1M5 8h2m2 1h1m1 0h1m37 0h1m-40 1h1m37 0h1m-2 1h1m-4 3h1m-28 1h1m6 0h1m18 0h1m9 0h2m-39 1h2m34 5h1m0 1h1m0 1h1m-1 1h1m-1 1h1M33 39h1m-2 1h1m-23 1h2m19 0h1m-22 1h1m20 0h1m2 0h1m-4 1h2m-4 1h1m2 0h2m-6 1h1M9 47h2m-1 1h1m31 1h1m-4 1h1m3 0h1m-6 1h6m-5 1h5m-31 1h1m30 0h1m-2 1h3m-2 1h1"/><path stroke="#f05040" d="M16 1h5m-7 1h3m-3 1h1m18 37h2m-3 1h3m-3 1h2m-1 1h1m6 6h2m-2 1h3"/><path stroke="#101010" d="M29 1h1M20 2h3m1 0h5m-6 1h1m13 1h6m-8 1h2m6 0h2M10 6h1m23 0h1m10 0h1M9 7h2m22 0h1m12 0h1M9 8h2m4 0h4m5 0h2m8 0h1M10 9h1m3 0h1m4 0h1m3 0h1m2 0h1m6 0h1M9 10h1m3 0h1m17 0h2M8 11h2m14 0h2M8 12h2m6 0h4m3 0h1m2 0h2M8 13h2m5 0h1m4 0h1m5 0h1M8 14h3m2 0h2m13 0h2M8 15h3m3 0h1m13 0h3M8 16h4m3 0h1m11 0h3m1 0h1M3 17h2m2 0h1m1 0h3m2 0h1m11 0h4M2 18h1m1 0h1m4 0h4m1 0h1m11 0h3M2 19h1m6 0h5m1 0h1m9 0h1m1 0h2m1 0h1M5 20h1m3 0h4m1 0h3m7 0h1m2 0h1m1 0h1M5 21h1m4 0h3m1 0h1m3 0h1m3 0h2m2 0h1m2 0h1m10 0h1m-31 1h1m1 0h1m2 0h1m4 0h2m7 0h1m11 0h4M6 23h1m2 0h1m6 0h1m12 0h1M6 24h1m11 0h1m11 0h1M7 25h1m12 0h1M8 26h1m12 0h2M9 27h2m27 0h2m-30 1h1m23 0h4M4 29h1m7 0h1m4 0h1m9 0h1m5 0h1M4 30h1m8 0h4m9 0h1M4 31h2m31 0h1M4 32h2m18 0h1m11 0h2M4 33h2m7 0h2m7 0h2m11 0h1M4 34h2m3 0h1m3 0h3m4 0h1m14 0h1M4 35h2m3 0h1m1 0h1m1 0h1m5 0h1m14 0h1M4 36h2m3 0h1m1 0h2m21 0h1M4 37h2m3 0h1m1 0h2m7 0h1m11 0h3M4 38h1m1 0h1m2 0h2m9 0h1m10 0h1M4 39h1m1 0h1m2 0h1m9 0h3m9 0h1M3 40h1m2 0h1m1 0h1m10 0h3m8 0h1M3 41h1m2 0h1m1 0h1m9 0h4m5 0h3M2 42h1m3 0h2m9 0h4m4 0h2M0 43h2m14 0h5m3 0h1m4 0h1M0 44h1m17 0h6m10 0h1m-4 1h2m1 0h1M7 46h1m-1 1h1m13 0h1m-1 1h1M8 49h1m12 0h1m-2 1h1M9 51h1m10 0h1m15 0h1m-27 1h1m9 0h1m15 0h2m-27 1h1m7 0h1m17 0h3m-28 1h1m6 0h1m18 0h1m2 0h1m-29 1h1m4 0h1m23 0h1m-29 1h4m25 0h1"/><path stroke="#383838" d="M19 2h1m-3 1h2m5 0h4M15 4h2m5 0h3m1 0h3M14 5h1m8 0h1m1 0h1m3 0h1M13 6h1m4 0h1m4 0h1m2 0h1m3 0h1M12 7h1m4 0h1m5 0h2m2 0h1m3 0h1M12 8h1m10 0h1m3 0h1m4 0h2M16 9h1m5 0h1m1 0h2m2 0h1m-18 1h1m4 0h1m1 0h1m3 0h1m1 0h2m2 0h3m-21 1h2m3 0h1m1 0h2m3 0h1m5 0h1m1 0h2m-22 1h2m3 0h1m5 0h1m6 0h1m1 0h2m-22 1h2m16 0h2m1 0h1m-21 1h1m14 0h1m3 0h2m-21 1h1m14 0h2m3 0h1m-20 1h1m1 0h1m11 0h1m-15 1h2m11 0h1M3 18h1m9 0h1M4 19h1m9 0h1M2 20h1m-1 1h1m-2 1h1m3 0h1m-5 1h1m-1 1h1m-1 1h1m-1 1h1m27 0h1M1 27h1m2 0h1m22 0h2M1 28h1m2 0h1m33 0h1M1 29h1m3 0h1m5 0h1m22 0h4M1 30h1m3 0h1m5 0h2m20 0h1m3 0h1M0 31h1m7 0h1m2 0h2m19 0h1m3 0h1M0 32h1m7 0h1m2 0h3m14 0h4m3 0h1M0 33h1m7 0h5m16 0h1M0 34h1m2 0h1m4 0h1m1 0h3m17 0h2m2 0h1M0 35h1m2 0h1m4 0h1m1 0h1m1 0h1m7 0h1m9 0h4M0 36h1m2 0h1m4 0h1m1 0h1m9 0h1m10 0h3M0 37h1m2 0h1m2 0h1m1 0h1m1 0h1m10 0h1M0 38h1m2 0h1m4 0h1m12 0h1M0 39h1m2 0h1m4 0h1m13 0h5m3 0h1M0 40h1m1 0h1m4 0h1m14 0h3m4 0h1M0 41h3m4 0h1m14 0h2m1 0h2M0 42h2m19 0h4m-4 1h3"/><path stroke="#885030" d="M38 2h7M35 3h14M34 4h2m15 0h1M33 5h2m10 0h1m7 0h1M32 6h2m12 0h1m7 0h1M32 7h1m14 0h1m7 0h1m-9 1h1m8 0h1M47 9h1m9 0h1m-35 1h1m23 0h1m10 0h1m-1 1h1m-1 1h1m0 1h1m-1 1h1m-1 1h1m-22 2h5m17 0h1m-46 1h1m2 0h1m2 0h1m3 0h1m8 0h4m5 0h1m16 0h1m-45 1h1m2 0h2m3 0h1m7 0h2m7 0h4m15 0h1m-48 1h1m3 0h1m5 0h1m1 0h1m14 0h1m3 0h1m15 0h1m-48 1h1m3 0h1m19 0h3m1 0h1m2 0h1m15 0h1m-45 1h1m1 0h2m7 0h1m5 0h4m23 0h1m-44 1h1m2 0h4m3 0h1m32 0h1m-42 1h1m6 0h1m19 0h1m12 0h1m-34 1h1m18 0h1m13 0h1m-37 1h3m19 0h1m12 0h1m-14 1h1m11 0h1m-13 1h2m9 0h1m-10 1h3m5 0h1m-16 1h2m8 0h3m2 0h1m-14 1h1m10 0h2m-13 1h1m12 0h2m-42 1h1m4 0h1m21 0h1m14 0h1m-42 1h1m2 0h1m22 0h1m-26 1h2m22 0h1m-23 1h1m20 0h1m-22 1h1m19 0h1m-28 1h1m6 0h1m14 0h2m2 0h1m-27 1h1m23 0h2m-26 1h1m23 0h1m-25 1h1m-1 1h1m23 0h1M7 43h1m4 0h1m15 0h1m8 0h1M7 44h1m4 0h1m25 0h1M7 45h1m4 0h1m26 0h1m-28 1h1m11 0h1m7 0h1m-20 1h1m10 0h1m8 0h1M8 48h1m4 0h1m10 0h1m9 0h1m-22 1h1m10 0h1m10 0h1M9 50h1m4 0h1m10 0h1m-12 1h1m10 0h1m-12 1h1m10 0h1m-11 1h1m9 0h1m-11 1h1m8 0h1m-9 1h2m6 0h1m-7 1h6"/><path stroke="#585860" d="M19 3h4m2 1h1m-8 1h1m3 0h1m3 0h1M17 6h1m4 0h1m1 0h1m2 0h1M5 7h1m7 0h1m2 0h1m5 0h1m5 0h1m-7 1h1m5 0h2M6 9h2m4 0h1m2 0h1m2 0h1m10 0h4m-21 1h1m2 0h1m1 0h1m3 0h1m4 0h1m-15 1h1m1 0h1m1 0h1m4 0h1m4 0h1m2 0h1M1 12h1m10 0h1m1 0h1m5 0h1m8 0h1m-18 1h1m1 0h1m12 0h1m2 0h1M1 14h1m3 0h1m6 0h1m14 0h1M2 15h2m8 0h2m-1 1h1m17 2h1M4 20h1m8 2h1m-9 1h1m6 0h1m20 0h1m-22 1h1m19 0h1M6 25h1m4 0h1m7 0h1m10 0h1M4 26h1m2 0h1m3 0h1m7 0h1M8 27h1m2 0h1m7 0h1m6 0h1M9 28h1m1 0h1m6 0h1m7 0h1M7 29h1m2 0h1m7 0h1m7 0h1m4 0h2M3 30h1m3 0h2m1 0h1m7 0h1m13 0h1m3 0h1M3 31h1m3 0h1m1 0h2m6 0h1m1 0h1m5 0h1m2 0h4m3 0h1m3 0h1M3 32h1m3 0h1m1 0h2m3 0h3m3 0h1m6 0h1m10 0h1M3 33h1m3 0h1m13 0h1m6 0h1m1 0h5M2 34h1m3 0h2m13 0h1m7 0h1m2 0h2m3 0h1M2 35h1m3 0h2m13 0h1m7 0h1M2 36h1m3 0h2m13 0h1m7 0h1m6 0h1M2 37h1m4 0h1m20 0h1m6 0h1M2 38h1m4 0h1m14 0h6M1 39h2m4 0h1m21 0h1M1 40h1m23 0h4m-5 1h1m2 1h2m-4 1h1m-10 1h2m6 0h1m2 0h1m-10 1h5m1 0h3m-8 1h5m16 0h1m-2 1h1m1 0h1m-5 1h2m1 0h1m-5 1h1m2 0h1m-3 1h2"/><path stroke="#909090" d="M17 4h5m-7 1h3m1 0h3m2 0h1m2 0h2M6 6h2m6 0h3m2 0h3m3 0h1m2 0h1M8 7h1m5 0h2m3 0h2m4 0h2m3 0h1M8 8h1m5 0h1m15 0h2M13 9h1m3 0h1m2 0h2m5 0h1m-14 1h1m4 0h2m6 0h1M2 11h3m8 0h1m5 0h2m6 0h1M5 12h1m7 0h1M1 13h1m3 0h1m7 0h1M2 14h1m1 1h1m24 3h2m1 0h1M3 19h1m22 0h1m2 0h1m1 0h1M3 20h1m22 0h1m4 0h1M3 21h2m26 0h1M2 22h3m9 0h1m16 0h1M2 23h3m8 0h1m1 0h1m16 0h1M2 24h4m10 0h2m13 0h1M2 25h4m11 0h2m8 0h1m1 0h1M2 26h2m1 0h2m11 0h1m1 0h1m5 0h3M2 27h2m1 0h3m10 0h1m1 0h6m14 0h1M2 28h2m1 0h4m3 0h1m4 0h1m1 0h2m4 0h1m15 0h1M2 29h2m2 0h1m1 0h2m3 0h4m2 0h2m7 0h3m9 0h1M2 30h1m3 0h1m2 0h1m7 0h1m1 0h2m13 0h2m3 0h1M1 31h2m3 0h1m9 0h1m1 0h1m1 0h2m2 0h1m1 0h1m6 0h2M1 32h2m3 0h1m14 0h3m1 0h1m6 0h3M1 33h2m3 0h1m17 0h1m12 0h1M1 34h1m20 0h1M1 35h1m20 0h1m13 0h1M1 36h1m20 0h1m5 0h1m1 0h1M1 37h1m20 0h6m1 0h3M1 38h1m26 0h3m2 0h1m-7 1h2m3 0h1m-2 1h1m-2 1h1m-2 1h1m-4 1h1m-2 1h1m-3 1h1"/><path stroke="#d86830" d="M43 4h3m3 0h2m-5 1h1m5 0h1m-6 1h1m0 1h1m-1 1h1m-1 1h1m2 3h2m2 0h1m-8 1h1m1 0h1m-2 1h1m-3 1h1m-2 1h1m4 0h1m-9 1h1m5 1h1m1 1h1m3 0h1m-41 2h2m7 0h1m20 0h1m-29 1h1m4 0h2m22 0h1m-29 1h1m27 2h1m-1 1h1m-1 1h1m0 1h1m2 1h1m2 1h2m0 1h1m-45 7h1m-2 1h2m-3 1h3m-3 1h1m-2 1h2m1 0h1m-4 1h3m-3 1h3m-3 1h2m-2 1h1m-1 1h1m3 0h1m10 0h1m-12 1h1m10 0h1m-13 1h2m10 0h1m-13 1h3m10 0h1m-15 1h4m10 0h1m-14 1h3m10 0h1m-13 1h1m1 0h1m9 0h1m-12 1h2m8 0h1m-10 1h2m6 0h2"/><path stroke="#f89040" d="M46 4h3m-2 1h5m-4 1h6m-5 1h1m3 0h2m-6 1h1m5 0h1m0 1h1m0 1h1m-10 1h1m-3 1h1m1 0h1m4 0h2m-10 1h1m5 0h1m-5 1h1m5 2h3m-12 1h2m11 0h1m-14 1h1m1 0h2m8 0h1m-9 1h1m5 0h1m-10 1h1m3 0h1m-25 1h1m24 0h1m-27 1h1m1 0h1m20 0h1m2 0h1m-32 1h1m6 0h1m21 0h1m2 0h1m-32 1h1m26 0h1m7 0h1m-35 1h5m21 0h2m4 0h1m1 0h4m-12 1h1m7 0h3m-11 1h3m6 0h1m-9 1h5m-2 1h4M11 43h1m-1 1h1m-2 1h2m-3 1h3m-1 1h1m10 0h1M9 48h1m1 0h1m10 0h1M9 49h2m11 0h1m-13 1h1m10 0h3m-1 1h1m-1 1h1m-1 1h1m-2 1h1m-4 1h3"/><path stroke="#c8c8d0" d="M29 6h1M6 7h1m11 0h1m2 0h1m7 0h1M7 8h1m5 0h1m5 0h3m4 0h1M2 12h1m22 0h1M2 13h1m15 0h2m5 0h1M3 14h2m14 0h1m8 6h1m-2 1h2m-1 1h1m1 0h1m-3 1h1m1 0h2m-19 1h1m13 0h3m-18 1h3m13 0h1m-17 1h1m4 0h1m-6 1h1m4 0h1m-2 1h1m4 0h1m18 0h1m-20 1h2m15 0h2m-19 1h5m1 0h5m6 0h1m-26 1h3m6 0h2m3 0h1m10 0h1m-3 2h1m-14 1h2m-2 1h2m3 0h1m6 0h1m-13 1h5m4 2h1m2 1h1m-1 1h1m4 7h1m-2 1h1m-2 1h1"/><path stroke="#f8f8f8" d="M7 7h1m-5 5h2m-2 1h2m12 1h2m5 0h2m-8 1h2m-2 1h1m11 4h1m-1 1h1m-17 2h1m-1 1h2m-1 1h2m-4 1h4m-4 1h4m-4 1h3m6 0h3m14 0h1m-17 1h3m0 3h1m-2 1h3m-3 1h4m7 0h1m-12 1h3m7 1h1m-2 3h1m-8 4h1m-2 1h1m10 5h1"/><path stroke="#f8c060" d="M50 7h3m-3 1h5m-5 1h6m-6 1h7m-7 1h2m3 0h2m-10 1h1m9 0h1m-12 1h2m4 0h3m1 0h3m-14 1h2m3 0h4m1 0h4m-15 1h3m2 0h4m3 0h3m-15 1h2m2 0h3m6 0h2m-13 1h11m2 0h1m-12 1h1m1 0h6m2 0h2m-15 1h1m3 0h1m2 0h2m3 0h3m-14 1h2m2 0h1m4 0h5m-14 1h3m2 0h1m1 0h7m-35 1h1m22 0h1m2 0h2m1 0h6m-36 1h2m26 0h2m1 0h5m-39 1h5m24 0h1m5 0h3m-9 1h3m-4 1h6m-5 1h6m-3 1h3M21 51h2m-2 1h2m-3 1h3m-3 1h2"/><path stroke="#e8b090" d="M23 11h1m-2 1h1m-2 1h1m1 0h1m-4 1h1m4 1h1m-1 1h1m-11 1h1m0 1h1m0 1h1m16 0h1m5 0h1m-23 1h1m13 0h2m5 0h1m1 0h1m-23 1h3m10 0h5m5 0h2m-12 1h1M17 32h3m19 0h1m-24 1h4m18 0h2m-23 1h2m19 0h1m-2 1h1m-1 1h1m-2 1h1m-2 6h1m-1 2h1m-3 1h4m2 0h1m-6 1h5m-4 1h2"/><path stroke="#f8d8c8" d="M22 13h1m-2 1h3m-4 1h4m-5 1h6m-9 1h9m-8 1h1m1 0h2m1 0h3m13 0h5m-25 1h1m2 0h3m11 0h5m-21 1h4m11 0h5m3 0h2m-4 11h2m-2 1h2m-2 1h2m-3 1h3m-4 1h3m-3 1h2m-3 1h2m-3 1h2m-2 5h1m-2 1h3m-2 1h3m-2 1h2"/></svg>