<svg xmlns="http://www.w3.org/2000/svg" width="120" height="42" xmlns:v="https://vecta.io/nano"><g transform="matrix(.9938 0 0 .9937 -177.69267 .000001)"><path d="M181.966.511L296.03.713c1.594 0 3.018-.236 3.018 3.181l-.14 37.567h-119.82V3.754c0-1.685.163-3.244 2.878-3.244z" fill="#aab2ab"/><path d="M297.296 0H181.067c-1.247 0-2.261 1.014-2.261 2.261v39.497a.51.51 0 0 0 .511.51h119.73a.51.51 0 0 0 .511-.51V2.261c0-1.247-1.015-2.261-2.262-2.261zM181.067 1.021h116.229a1.24 1.24 0 0 1 1.24 1.239v27.45h-83.344c-3.045 5.506-8.911 9.244-15.644 9.244s-12.6-3.735-15.644-9.244h-4.078V2.261a1.24 1.24 0 0 1 1.24-1.239z"/><path d="M253.078 32.956c.317 0 .607.028.87.084a1.87 1.87 0 0 1 .673.275 1.28 1.28 0 0 1 .435.508c.103.212.154.473.154.784 0 .336-.076.615-.229.839s-.379.407-.678.551c.412.118.72.325.923.621s.305.652.305 1.069c0 .336-.065.627-.196.873a1.71 1.71 0 0 1-.528.602c-.222.156-.475.271-.758.346a3.4 3.4 0 0 1-.875.112h-3.236v-6.664h3.142 0zm-.187 2.695c.262 0 .477-.062.646-.187s.252-.325.252-.604c0-.155-.028-.283-.084-.382a.63.63 0 0 0-.225-.233.95.95 0 0 0-.322-.116 2.17 2.17 0 0 0-.378-.032h-1.374v1.555h1.485zm.086 2.828c.144 0 .28-.014.411-.042s.246-.075.347-.14a.71.71 0 0 0 .238-.267c.06-.111.089-.255.089-.429 0-.342-.097-.586-.29-.732s-.449-.219-.767-.219h-1.6v1.828h1.571zm2.812-5.523h1.644l1.561 2.632 1.551-2.632h1.634l-2.474 4.106v2.558h-1.469v-2.595l-2.446-4.069zm-42.518-13.222c.005 7.577-6.135 13.723-13.712 13.728s-13.724-6.134-13.728-13.712c-.004-7.594 6.135-13.74 13.712-13.744s13.724 6.134 13.728 13.712z" fill="#fff"/><path d="M210.704 8.559c3.042 3.042 4.564 6.768 4.564 11.175s-1.495 8.094-4.485 11.058c-3.173 3.122-6.924 4.683-11.251 4.683-4.275 0-7.961-1.548-11.055-4.643s-4.642-6.794-4.642-11.097 1.547-8.027 4.642-11.175c3.016-3.043 6.701-4.565 11.055-4.565 4.407 0 8.13 1.521 11.173 4.565zm-20.18 2.047c-2.572 2.598-3.858 5.641-3.858 9.133s1.273 6.508 3.818 9.053 5.577 3.818 9.093 3.818 6.573-1.285 9.171-3.857c2.467-2.389 3.701-5.392 3.701-9.014 0-3.595-1.254-6.646-3.76-9.152s-5.543-3.759-9.112-3.759-6.587 1.26-9.054 3.779zm6.769 7.597c-.393-.857-.981-1.286-1.766-1.286-1.387 0-2.081.934-2.081 2.801s.693 2.801 2.081 2.801c.916 0 1.57-.455 1.963-1.366l1.923 1.024c-.916 1.628-2.291 2.443-4.125 2.443-1.414 0-2.547-.434-3.397-1.3s-1.277-2.062-1.277-3.586c0-1.497.438-2.686 1.316-3.566s1.97-1.32 3.28-1.32c1.938 0 3.326.764 4.164 2.289l-2.081 1.065zm9.046 0c-.394-.857-.97-1.286-1.73-1.286-1.415 0-2.123.934-2.123 2.801s.708 2.801 2.123 2.801c.917 0 1.56-.455 1.927-1.366l1.966 1.024c-.915 1.628-2.288 2.443-4.118 2.443-1.412 0-2.542-.434-3.392-1.3s-1.274-2.062-1.274-3.586c0-1.497.432-2.686 1.294-3.566s1.96-1.32 3.294-1.32c1.935 0 3.32.764 4.156 2.289l-2.122 1.065z"/><circle cx="255.551" cy="15.313" r="10.807" fill="#fff"/><path d="M258.678 12.187c0-.417-.338-.754-.753-.754h-4.773c-.415 0-.753.337-.753.754v4.773h1.331v5.652h3.617V16.96h1.331v-4.773h0z"/><circle cx="255.539" cy="9.172" r="1.633"/><path d="M255.524 3.407c-3.232 0-5.969 1.128-8.208 3.384-2.298 2.334-3.446 5.096-3.446 8.285s1.148 5.932 3.446 8.227 5.034 3.442 8.208 3.442c3.213 0 5.998-1.156 8.354-3.471 2.22-2.197 3.33-4.93 3.33-8.197s-1.13-6.029-3.388-8.285-5.024-3.384-8.296-3.384zm.029 2.1c2.648 0 4.897.934 6.747 2.801 1.869 1.847 2.804 4.103 2.804 6.768 0 2.684-.915 4.911-2.745 6.68-1.929 1.906-4.196 2.859-6.806 2.859s-4.859-.943-6.747-2.83-2.833-4.123-2.833-6.709.954-4.842 2.862-6.768c1.83-1.867 4.069-2.801 6.718-2.801z" fill-rule="evenodd"/></g></svg>