<svg xmlns="http://www.w3.org/2000/svg" viewBox="0 0 71 55" fill="none" xmlns:v="https://vecta.io/nano"><g clip-path="url(#A)"><path d="M60 5c-4.5-2-9.4-3.6-14.5-4.5-.1 0-.2 0-.2.1-.6 1-1.3 2.6-1.8 3.7a54 54 0 0 0-16.2 0L25.6.5c0-.1-.1-.1-.2-.1-5 1-10 2.4-14.5 4.5 0 0-.1 0-.1.1A60 60 0 0 0 .3 45.4c0 .1 0 .1.1.2a59 59 0 0 0 17.7 9c.1 0 .2 0 .2-.1a42 42 0 0 0 3.6-5.9c.1-.1 0-.3-.1-.3-2-.7-3.8-1.6-5.5-2.6-.1-.1-.2-.3 0-.4.4-.3.7-.6 1-1 .1-.1.2-.1.2 0a42 42 0 0 0 35.7 0c.1 0 .2 0 .2 0l1 1c.1.1.1.3 0 .4-1.8 1-3.6 2-5.5 2.6-.1 0-.2.2-.1.3 1 2 2.3 4 3.6 6 .1.1.2.1.2.1 5.8-1.8 11.7-4.5 17.8-9 .1 0 .1-.1.1-.2C72.2 30 68.2 16.8 60.2 5c0 0-.1-.1-.1-.1zM23.7 37.3c-3.5 0-6.4-3.2-6.4-7.2s2.8-7.2 6.4-7.2c3.6 0 6.4 3.2 6.4 7.2 0 4-2.8 7.2-6.4 7.2zm23.6 0c-3.5 0-6.4-3.2-6.4-7.2s2.8-7.2 6.4-7.2c3.6 0 6.4 3.2 6.4 7.2 0 4-2.8 7.2-6.4 7.2z" fill="#23272a"/></g><defs><clipPath id="A"><path fill="#fff" d="M0 0h71v55H0z"/></clipPath></defs></svg>