<svg xmlns="http://www.w3.org/2000/svg" viewBox="0 9.8 54.1 34.8" xmlns:v="https://vecta.io/nano"><path d="M14.2 18.4a81 81 0 0 0 11.9 6.5c7-2.5 13.2-6 19.4-9.4l7-4c-3-2.5-11.7-1.2-14.2-1.2H17c-2-.1-4.2-.2-6.2 0H9c-1.4 0-3.4-.1-5 .4l6.3 4.7c1.3 1 2.6 2 4 3zM11.4 20l-10-7.3c-.6 1.7-.3 4-.5 5.4v.2C.4 21 .4 24 .4 26.8.3 29.4-.3 33 .2 36.3c0 1.5-.1 3.2.3 4.5A204 204 0 0 1 21.2 26c-3.4-1.7-6.7-3.5-9.8-5.8zm42.6.8c.1-2 .4-4.4 0-6.5-6.7 3.7-13 7.4-20 10.5l11.7 9.6 5 4 1.7 1.5c.2-.3.3-.7.5-1 .7-2.3.4-5 .3-7.4V30l.6-9zm-23 5.4a87 87 0 0 1-4.6 1.8c-.6.2-1 .1-1.4-.3l-.7-.3-.3.3A248 248 0 0 0 2.1 43.3c.6.4 1.4.6 2.4.6h13.7 23.6c3 .1 6.4-.1 8.7-1.8l-19-16-.3-.3z" fill="#23272a"/></svg>
