<svg xmlns="http://www.w3.org/2000/svg" width="32" height="32" viewBox="0 0 8.467 8.467" xmlns:v="https://vecta.io/nano">
<path fill="rgba(0,0,0,0.05)"
    d="M4.34 4.674l-.666-.879c-.243.43-.647.748-1.192.967.049-.157.035-.237.153-.479-.659.166-1.307.304-1.854.198.315-.387.689-.668 1.086-.908C1.135 3.265.443 2.934 0 2.458c.507-.127 1.047-.127 1.592-.105C1.227 1.81.827 1.249.611.662c.636.11 1.246.554 1.786.859.074-.506.088-1.005.239-1.521.671.817.702 1.324.975 1.945.36-.364.68-.802 1.111-1.031.046.572-.249 1.197-.4 1.8.196-.065.251-.086.44-.089-.087.271-.241.658-.941 1.052l.7.805z"/>
</svg>
