<?xml version="1.0" encoding="utf-8"?><svg version="1.1" id="Layer_1" xmlns="http://www.w3.org/2000/svg" xmlns:xlink="http://www.w3.org/1999/xlink" x="0px" y="0px" width="122.88px" height="105.283px" viewBox="0 0 122.88 105.283" enable-background="new 0 0 122.88 105.283" xml:space="preserve"><g><path fill-rule="evenodd" clip-rule="evenodd" d="M64.534,2.334l7.463,0.472c0.513-0.035,1.034-0.063,1.567-0.082L120.7,54.051 c3.183,3.465,2.819,8.945-0.69,12.076l-41.5,37c-3.037,2.709-7.527,2.838-10.707,0.541l42.466-37.861 c3.74-3.336,4.128-9.18,0.736-12.871L64.534,2.334L64.534,2.334z M53.067,3.185l45.534,49.581 c3.074,3.348,2.723,8.643-0.667,11.666l-40.089,35.744c-3.387,3.02-8.645,2.719-11.666-0.67L3.422,51.541l0.082-1.414L0,0 l51.549,3.264C52.045,3.23,52.551,3.203,53.067,3.185L53.067,3.185z M20.058,9.77c5.104,0.112,9.154,4.345,9.042,9.45 s-4.345,9.155-9.45,9.042c-5.105-0.112-9.154-4.345-9.042-9.45C10.72,13.707,14.953,9.657,20.058,9.77L20.058,9.77z M28.251,44.743 l29.426,32.062l-5.865,5.385L22.386,50.125L28.251,44.743L28.251,44.743z M41.265,33.13l29.429,32.061l-5.867,5.383L35.399,38.513 L41.265,33.13L41.265,33.13z M53.091,22.061L82.52,54.125l-5.867,5.383L47.226,27.447L53.091,22.061L53.091,22.061z"/></g></svg>